<svg width="160" height="57" viewBox="0 0 160 57" fill="none" xmlns="http://www.w3.org/2000/svg">
<path d="M34.5781 0.793751C34.5781 0.956251 34.5375 1.07813 34.4562 1.15938C33.4 2.16146 32.1948 2.94688 30.8406 3.51563C29.5135 4.05729 28.1187 4.47708 26.6562 4.775C25.2208 5.04583 23.7583 5.22188 22.2687 5.30313C20.8062 5.38438 19.3844 5.45208 18.0031 5.50625C17.8406 8.05208 17.4208 10.5573 16.7437 13.0219C16.0667 15.4865 15.3083 17.924 14.4687 20.3344C13.7646 22.4198 12.9792 24.4646 12.1125 26.4688C11.2458 28.4458 10.325 30.4094 9.35 32.3594C8.97083 33.1177 8.56458 33.9302 8.13125 34.7969C7.725 35.6365 7.30521 36.4083 6.87187 37.1125C6.79062 37.275 6.65521 37.3562 6.46562 37.3562C6.30312 37.3562 6.14062 37.2885 5.97812 37.1531C5.84271 37.0448 5.775 36.8958 5.775 36.7062V36.5844C6.15417 35.6906 6.54687 34.7969 6.95312 33.9031C7.35937 33.0094 7.75208 32.1021 8.13125 31.1813C8.91667 29.2854 9.675 27.3896 10.4062 25.4938C11.1646 23.5708 11.8687 21.6344 12.5187 19.6844C13.3042 17.2469 13.9812 14.7823 14.55 12.2906C15.1458 9.79896 15.8906 7.36146 16.7844 4.97813C16.8115 4.95104 16.825 4.92396 16.825 4.89688C16.8521 4.86979 16.8792 4.84271 16.9062 4.81563C15.7146 5.00521 14.4823 5.20833 13.2094 5.425C11.9635 5.61458 10.7312 5.89896 9.5125 6.27813C8.29375 6.63021 7.12917 7.09063 6.01875 7.65938C4.90833 8.20104 3.90625 8.90521 3.0125 9.77188C2.63333 10.151 2.30833 10.5302 2.0375 10.9094C1.79375 11.2885 1.52292 11.6813 1.225 12.0875C1.14375 12.25 1.00833 12.3313 0.81875 12.3313C0.65625 12.3313 0.49375 12.2771 0.33125 12.1688C0.195833 12.0604 0.128125 11.9115 0.128125 11.7219C0.128125 11.6135 0.141667 11.5458 0.16875 11.5188C1.0625 9.78542 2.15937 8.40417 3.45937 7.375C4.78646 6.34583 6.23542 5.56042 7.80625 5.01875C9.37708 4.47708 11.0292 4.11146 12.7625 3.92188C14.4958 3.70521 16.2292 3.54271 17.9625 3.43438C19.3708 3.35313 20.7385 3.25833 22.0656 3.15C23.3927 3.01458 24.7062 2.83854 26.0062 2.62188C27.3062 2.37813 28.5927 2.06667 29.8656 1.6875C31.1656 1.28125 32.4521 0.766668 33.725 0.143751C33.7792 0.116668 33.8469 0.103126 33.9281 0.103126C34.1177 0.103126 34.2667 0.184376 34.375 0.346876C34.5104 0.482293 34.5781 0.631251 34.5781 0.793751ZM32.6687 4.73438C32.6687 4.89688 32.601 5.08646 32.4656 5.30313L32.425 5.425C32.4792 5.5875 32.5062 5.70938 32.5062 5.79063C32.3167 5.92604 32.1812 6.075 32.1 6.2375C32.0187 6.37292 31.8292 6.44063 31.5312 6.44063C31.2875 6.44063 31.0437 6.34583 30.8 6.15625C30.5562 5.93958 30.4344 5.68229 30.4344 5.38438C30.4344 4.89688 30.475 4.50417 30.5562 4.20625C30.6646 3.88125 31.0302 3.71875 31.6531 3.71875C31.8969 3.71875 32.1271 3.82708 32.3437 4.04375C32.5604 4.26042 32.6687 4.49063 32.6687 4.73438ZM32.3844 30.6531C32.3844 30.7885 32.3437 30.8969 32.2625 30.9781C31.7479 31.601 31.2469 32.224 30.7594 32.8469C30.299 33.4427 29.7979 33.9979 29.2562 34.5125C28.7417 35.0271 28.1594 35.4604 27.5094 35.8125C26.8594 36.1917 26.1146 36.4625 25.275 36.625C24.5437 36.3 24.0427 35.8667 23.7719 35.325C23.501 34.8104 23.3656 34.174 23.3656 33.4156V31.9531C23.3656 31.249 23.4333 30.5177 23.5687 29.7594C23.7312 29.001 23.8937 28.2698 24.0562 27.5656C24.3 26.5094 24.5708 25.3719 24.8687 24.1531C25.1937 22.9344 25.5594 21.7292 25.9656 20.5375C26.399 19.3188 26.8865 18.1542 27.4281 17.0438C27.9698 15.9063 28.5792 14.9177 29.2562 14.0781C29.3917 13.9427 29.5271 13.875 29.6625 13.875C29.825 13.875 29.9875 13.9427 30.15 14.0781C30.3125 14.1865 30.3937 14.3354 30.3937 14.525V14.6063C29.9333 16.0417 29.4052 17.5583 28.8094 19.1563C28.2406 20.7271 27.6854 22.3385 27.1437 23.9906C26.6292 25.6156 26.1823 27.2406 25.8031 28.8656C25.451 30.4906 25.275 32.0615 25.275 33.5781C25.275 33.7406 25.275 33.9708 25.275 34.2688C25.3021 34.5667 25.3969 34.7563 25.5594 34.8375C26.1552 34.7292 26.7781 34.4177 27.4281 33.9031C28.1052 33.3885 28.7281 32.8469 29.2969 32.2781C29.8927 31.7094 30.4073 31.1948 30.8406 30.7344C31.274 30.274 31.5719 30.0438 31.7344 30.0438C31.8698 30.0438 32.0052 30.1115 32.1406 30.2469C32.3031 30.3823 32.3844 30.5177 32.3844 30.6531ZM72.7656 34.4719C72.7656 34.6073 72.6979 34.7427 72.5625 34.8781C72.2375 35.176 71.8177 35.501 71.3031 35.8531C70.7885 36.2052 70.2469 36.5302 69.6781 36.8281C69.1094 37.1531 68.5406 37.424 67.9719 37.6406C67.4031 37.8573 66.9021 37.9656 66.4687 37.9656C65.9271 37.9656 65.4396 37.8573 65.0062 37.6406C64.6 37.424 64.2344 37.126 63.9094 36.7469C63.5844 36.3948 63.3271 35.9885 63.1375 35.5281C62.9479 35.0677 62.826 34.5938 62.7719 34.1063C62.7177 33.5917 62.6635 33.0906 62.6094 32.6031C62.5552 32.0885 62.5281 31.574 62.5281 31.0594C62.5281 29.7594 62.6635 28.2563 62.9344 26.55C63.2052 24.8167 63.5437 23.0563 63.95 21.2688C64.3562 19.4542 64.8031 17.7073 65.2906 16.0281C65.7781 14.3219 66.2521 12.8458 66.7125 11.6C66.0896 12.6021 65.4531 13.5906 64.8031 14.5656C64.1802 15.5406 63.5437 16.5021 62.8937 17.45C62.325 18.3167 61.7427 19.1833 61.1469 20.05C60.551 20.9167 59.9146 21.7698 59.2375 22.6094C58.5875 23.449 57.8833 24.2344 57.125 24.9656C56.3937 25.6969 55.5948 26.3469 54.7281 26.9156C54.674 26.9427 54.5927 26.9563 54.4844 26.9563C54.349 26.9563 54.2135 26.9021 54.0781 26.7938C53.9427 26.6854 53.8479 26.5635 53.7937 26.4281L53.7531 26.4688C53.726 26.4688 53.7125 26.4552 53.7125 26.4281C53.7125 26.401 53.699 26.374 53.6719 26.3469C53.401 25.5615 53.1979 24.749 53.0625 23.9094C52.9542 23.0698 52.8729 22.2302 52.8187 21.3906C52.7646 20.5781 52.7104 19.7656 52.6562 18.9531C52.6292 18.1406 52.5885 17.3281 52.5344 16.5156C52.426 15.0531 52.3177 13.5906 52.2094 12.1281C52.1281 10.6385 52.0198 9.14896 51.8844 7.65938C50.9635 9.96146 50.1104 12.2771 49.325 14.6063C48.5396 16.9354 47.7 19.2646 46.8062 21.5938C46.1562 23.2729 45.4385 24.9115 44.6531 26.5094C43.8677 28.1073 42.9333 29.624 41.85 31.0594C41.2812 31.7906 40.6448 32.4677 39.9406 33.0906C39.2365 33.7135 38.4781 34.2552 37.6656 34.7156C36.8531 35.176 35.9865 35.5281 35.0656 35.7719C34.1719 36.0427 33.2646 36.1781 32.3437 36.1781C32.2083 36.1781 32.0865 36.1104 31.9781 35.975C31.8698 35.8396 31.8156 35.7042 31.8156 35.5687C31.8156 35.2437 31.9646 35.0542 32.2625 35C32.8312 34.8646 33.3594 34.7563 33.8469 34.675C34.3615 34.5667 34.8896 34.4042 35.4312 34.1875C36.7042 33.6188 37.8146 32.8333 38.7625 31.8313C39.7375 30.8292 40.6042 29.7188 41.3625 28.5C42.1208 27.2813 42.7708 26.0083 43.3125 24.6813C43.8812 23.3542 44.3958 22.0813 44.8562 20.8625C45.2625 19.7792 45.6417 18.6823 45.9937 17.5719C46.3458 16.4615 46.6979 15.3646 47.05 14.2813C47.4292 13.1708 47.8219 12.074 48.2281 10.9906C48.6615 9.90729 49.1625 8.85104 49.7312 7.82188C48.9729 8.28229 48.201 8.70208 47.4156 9.08125C46.6302 9.43333 45.8583 9.83958 45.1 10.3C44.5312 10.625 43.9625 10.9906 43.3937 11.3969C42.825 11.776 42.2833 12.2094 41.7687 12.6969C41.2542 13.1573 40.7802 13.6583 40.3469 14.2C39.9406 14.7417 39.6156 15.324 39.3719 15.9469C39.2635 16.2177 39.1823 16.4885 39.1281 16.7594C39.074 17.0031 39.0062 17.2604 38.925 17.5313C38.8979 17.6667 38.8302 17.775 38.7219 17.8563C38.6135 17.9104 38.5052 17.9375 38.3969 17.9375C38.2885 17.9375 38.1531 17.8833 37.9906 17.775C37.8281 17.6667 37.7469 17.5583 37.7469 17.45C37.7469 16.4479 37.9229 15.5135 38.275 14.6469C38.6271 13.7802 39.101 12.9813 39.6969 12.25C40.2927 11.4917 40.9562 10.801 41.6875 10.1781C42.4458 9.55521 43.2177 9 44.0031 8.5125C45.249 7.72708 46.5625 6.96875 47.9437 6.2375C49.325 5.47917 50.7062 4.86979 52.0875 4.40938H52.1687C52.4396 4.40938 52.6427 4.51771 52.7781 4.73438C52.8594 4.78854 52.9135 4.86979 52.9406 4.97813C52.9677 5.08646 52.9542 5.18125 52.9 5.2625C53.3604 7.07708 53.7125 8.91875 53.9562 10.7875C54.2 12.6292 54.4167 14.4844 54.6062 16.3531C54.7417 17.7073 54.8635 19.0479 54.9719 20.375C55.1073 21.675 55.1344 23.0021 55.0531 24.3563C56.0823 23.0021 57.125 21.675 58.1812 20.375C59.2375 19.0479 60.2396 17.6938 61.1875 16.3125C62.2437 14.7958 63.2865 13.3063 64.3156 11.8438C65.3448 10.3542 66.401 8.87813 67.4844 7.41563C67.8635 6.92813 68.2427 6.42708 68.6219 5.9125C69.0281 5.39792 69.4344 4.91042 69.8406 4.45C69.949 4.34167 70.0708 4.2875 70.2062 4.2875C70.3687 4.2875 70.5448 4.38229 70.7344 4.57188C70.924 4.73438 71.0187 4.89688 71.0187 5.05938V5.14063C70.1792 8.17396 69.2583 11.1531 68.2562 14.0781C67.2542 17.0031 66.401 20.0094 65.6969 23.0969C65.3719 24.5594 65.074 26.0219 64.8031 27.4844C64.5594 28.9198 64.4375 30.3688 64.4375 31.8313C64.4375 32.2104 64.451 32.6573 64.4781 33.1719C64.5052 33.6865 64.5865 34.1875 64.7219 34.675C64.8573 35.1354 65.0604 35.5281 65.3312 35.8531C65.6292 36.1781 66.049 36.3406 66.5906 36.3406C67.0781 36.3406 67.6198 36.2052 68.2156 35.9344C68.8115 35.6906 69.3802 35.4062 69.9219 35.0812C70.4906 34.7563 70.9781 34.4719 71.3844 34.2281C71.7906 33.9573 72.0344 33.8219 72.1156 33.8219C72.2781 33.8219 72.4271 33.8896 72.5625 34.025C72.6979 34.1604 72.7656 34.3094 72.7656 34.4719ZM89.625 28.6625C88.9208 30.0979 88.1896 31.3844 87.4312 32.5219C86.6729 33.6323 85.6844 34.7156 84.4656 35.7719C83.8698 36.3135 83.1927 36.5844 82.4344 36.5844C82.0281 36.5844 81.6354 36.4625 81.2562 36.2187C80.9042 36.0021 80.6604 35.6906 80.525 35.2844C80.4708 35.149 80.4302 34.9594 80.4031 34.7156C80.4031 34.4719 80.3896 34.2146 80.3625 33.9438C80.3625 33.6729 80.3625 33.4156 80.3625 33.1719C80.3896 32.901 80.4031 32.6844 80.4031 32.5219C79.4552 33.6594 78.3312 34.6208 77.0312 35.4062C75.7583 36.2187 74.35 36.625 72.8062 36.625C72.725 36.625 72.6031 36.5979 72.4406 36.5437C72.3052 36.4896 72.1969 36.449 72.1156 36.4219C71.4927 36.124 71.0187 35.65 70.6937 35C70.3958 34.35 70.2469 33.7 70.2469 33.05C70.2469 32.1563 70.3552 31.276 70.5719 30.4094C70.8156 29.5156 71.1271 28.6625 71.5062 27.85C71.9125 27.0104 72.3729 26.2115 72.8875 25.4531C73.4021 24.6948 73.9437 23.9771 74.5125 23.3C75.975 21.4854 77.6542 19.9146 79.55 18.5875C81.4458 17.2333 83.5042 16.15 85.725 15.3375C85.7521 15.3104 85.8062 15.2969 85.8875 15.2969C86.0771 15.2969 86.2125 15.3646 86.2937 15.5C86.4021 15.6354 86.4562 15.7844 86.4562 15.9469C86.4562 16.1906 86.3615 16.3531 86.1719 16.4344C85.7115 16.6781 85.251 16.9083 84.7906 17.125C84.3573 17.3146 83.924 17.5313 83.4906 17.775C80.4844 19.5083 77.9521 21.7292 75.8937 24.4375C75.4875 24.9792 75.0677 25.5885 74.6344 26.2656C74.201 26.9427 73.8083 27.6469 73.4562 28.3781C73.1042 29.0823 72.8062 29.8135 72.5625 30.5719C72.3458 31.3302 72.2375 32.0615 72.2375 32.7656C72.2375 32.874 72.251 33.0365 72.2781 33.2531C72.3052 33.4427 72.3458 33.6458 72.4 33.8625C72.4542 34.0521 72.5354 34.2281 72.6437 34.3906C72.7792 34.526 72.9281 34.5938 73.0906 34.5938C73.876 34.5938 74.6344 34.3906 75.3656 33.9844C76.124 33.5781 76.8281 33.0635 77.4781 32.4406C78.1281 31.8177 78.7104 31.1542 79.225 30.45C79.7396 29.7458 80.1594 29.0823 80.4844 28.4594C81.1073 27.3219 81.6625 26.1844 82.15 25.0469C82.6375 23.8823 83.125 22.7177 83.6125 21.5531C83.8021 21.0656 84.0187 20.4969 84.2625 19.8469C84.5333 19.1969 84.7906 18.6417 85.0344 18.1813C85.1427 17.9917 85.3187 17.8969 85.5625 17.8969C85.7521 17.8969 85.9146 17.951 86.05 18.0594C86.1854 18.1677 86.2531 18.3167 86.2531 18.5063L86.2125 18.5875C85.9958 19.5625 85.7521 20.551 85.4812 21.5531C85.2104 22.5281 84.9125 23.4896 84.5875 24.4375C84.4521 24.8167 84.2896 25.2365 84.1 25.6969C83.9104 26.1573 83.7615 26.55 83.6531 26.875C83.599 27.0646 83.5583 27.2542 83.5312 27.4438C83.5312 27.6333 83.5177 27.8229 83.4906 28.0125C83.4094 28.4458 83.3146 28.8792 83.2062 29.3125C83.125 29.7188 83.0302 30.1385 82.9219 30.5719C82.7865 31.1135 82.6646 31.6688 82.5562 32.2375C82.475 32.7792 82.4344 33.3344 82.4344 33.9031C82.4344 34.0385 82.4344 34.1604 82.4344 34.2688C82.4344 34.3771 82.4479 34.4854 82.475 34.5938C82.6646 34.5938 82.8812 34.5125 83.125 34.35C83.3958 34.1875 83.6667 33.9979 83.9375 33.7813C84.2083 33.5375 84.4521 33.2938 84.6687 33.05C84.9125 32.8063 85.1021 32.6167 85.2375 32.4813C86.05 31.6146 86.8219 30.6531 87.5531 29.5969C87.7427 29.3802 87.9052 29.15 88.0406 28.9063C88.2031 28.6354 88.3792 28.3917 88.5687 28.175C88.65 28.0396 88.7719 27.9719 88.9344 27.9719C89.124 27.9719 89.2865 28.0396 89.4219 28.175C89.5573 28.3104 89.625 28.4729 89.625 28.6625ZM109.287 32.2781C109.287 32.4406 109.22 32.5625 109.084 32.6438C108.786 32.8875 108.434 33.1583 108.028 33.4563C107.622 33.7542 107.189 34.0521 106.728 34.35C106.268 34.6208 105.807 34.8781 105.347 35.1219C104.914 35.3656 104.521 35.5552 104.169 35.6906C103.546 35.9615 102.964 36.0969 102.422 36.0969C101.609 36.0969 101.014 35.799 100.634 35.2031C100.282 34.6344 100.106 33.9979 100.106 33.2938C100.106 32.4542 100.242 31.5063 100.512 30.45C100.783 29.3667 101.108 28.2698 101.487 27.1594C101.867 26.049 102.259 24.9656 102.666 23.9094C103.099 22.826 103.465 21.8781 103.762 21.0656C104.06 20.2802 104.331 19.4948 104.575 18.7094C104.819 17.8969 104.981 17.0573 105.062 16.1906C104.575 16.2448 103.911 16.5156 103.072 17.0031C102.232 17.4906 101.352 18.0594 100.431 18.7094C99.5375 19.3323 98.6844 19.9552 97.8719 20.5781C97.0594 21.201 96.4229 21.675 95.9625 22L94.5 24.925C93.85 26.1979 93.2271 27.4708 92.6312 28.7438C92.0625 29.9896 91.5073 31.2625 90.9656 32.5625C90.7219 33.1854 90.4917 33.8083 90.275 34.4313C90.0583 35.0542 89.8146 35.6771 89.5437 36.3C89.4625 36.5167 89.3135 36.625 89.0969 36.625C88.9885 36.625 88.8531 36.5573 88.6906 36.4219C88.501 36.2865 88.4063 36.1646 88.4063 36.0562C88.4063 36.0292 88.4333 35.9344 88.4875 35.7719C88.5146 35.6365 88.5552 35.474 88.6094 35.2844C88.6365 35.0948 88.6771 34.9188 88.7313 34.7563C88.7583 34.5938 88.7719 34.4854 88.7719 34.4313C89.2323 32.6438 89.7875 30.8833 90.4375 29.15C91.1146 27.4167 91.8594 25.7104 92.6719 24.0313C93.051 23.2458 93.4167 22.4604 93.7687 21.675C94.1208 20.8625 94.4865 20.0635 94.8656 19.2781C95.0281 18.9802 95.2177 18.6146 95.4344 18.1813C95.6781 17.7479 95.9219 17.3146 96.1656 16.8813C96.4365 16.4208 96.7073 16.001 96.9781 15.6219C97.249 15.2156 97.5062 14.9042 97.75 14.6875C97.8583 14.5792 97.9802 14.525 98.1156 14.525C98.224 14.525 98.3729 14.6063 98.5625 14.7688C98.7521 14.9042 98.8469 15.0396 98.8469 15.175C98.8469 15.2563 98.7927 15.4458 98.6844 15.7438C98.6031 16.0417 98.4948 16.3667 98.3594 16.7188C98.224 17.0438 98.0885 17.3688 97.9531 17.6938C97.8448 17.9917 97.7771 18.1948 97.75 18.3031C98.2104 17.8698 98.7385 17.3958 99.3344 16.8813C99.9573 16.3667 100.607 15.8927 101.284 15.4594C101.989 15.026 102.706 14.674 103.437 14.4031C104.169 14.1052 104.859 13.9563 105.509 13.9563C105.889 13.9563 106.241 14.1323 106.566 14.4844C106.918 14.8094 107.121 15.1615 107.175 15.5406C107.229 15.8115 107.256 16.0146 107.256 16.15C107.256 16.6104 107.161 17.1792 106.972 17.8563C106.809 18.5063 106.647 19.0615 106.484 19.5219C106.214 20.3073 105.821 21.35 105.306 22.65C104.792 23.9229 104.277 25.2365 103.762 26.5906C103.248 27.9448 102.801 29.2448 102.422 30.4906C102.043 31.7365 101.853 32.7115 101.853 33.4156C101.853 33.7135 101.88 33.9708 101.934 34.1875C101.989 34.3771 102.192 34.4719 102.544 34.4719C103.031 34.4719 103.6 34.3229 104.25 34.025C104.927 33.7271 105.577 33.4021 106.2 33.05C106.823 32.6708 107.365 32.3323 107.825 32.0344C108.285 31.7365 108.57 31.5875 108.678 31.5875C108.841 31.5875 108.976 31.6688 109.084 31.8313C109.22 31.9667 109.287 32.1156 109.287 32.2781ZM127 28.6625C126.296 30.0979 125.565 31.3844 124.806 32.5219C124.048 33.6323 123.059 34.7156 121.841 35.7719C121.245 36.3135 120.568 36.5844 119.809 36.5844C119.403 36.5844 119.01 36.4625 118.631 36.2187C118.279 36.0021 118.035 35.6906 117.9 35.2844C117.846 35.149 117.805 34.9594 117.778 34.7156C117.778 34.4719 117.765 34.2146 117.737 33.9438C117.737 33.6729 117.737 33.4156 117.737 33.1719C117.765 32.901 117.778 32.6844 117.778 32.5219C116.83 33.6594 115.706 34.6208 114.406 35.4062C113.133 36.2187 111.725 36.625 110.181 36.625C110.1 36.625 109.978 36.5979 109.816 36.5437C109.68 36.4896 109.572 36.449 109.491 36.4219C108.868 36.124 108.394 35.65 108.069 35C107.771 34.35 107.622 33.7 107.622 33.05C107.622 32.1563 107.73 31.276 107.947 30.4094C108.191 29.5156 108.502 28.6625 108.881 27.85C109.287 27.0104 109.748 26.2115 110.262 25.4531C110.777 24.6948 111.319 23.9771 111.887 23.3C113.35 21.4854 115.029 19.9146 116.925 18.5875C118.821 17.2333 120.879 16.15 123.1 15.3375C123.127 15.3104 123.181 15.2969 123.262 15.2969C123.452 15.2969 123.587 15.3646 123.669 15.5C123.777 15.6354 123.831 15.7844 123.831 15.9469C123.831 16.1906 123.736 16.3531 123.547 16.4344C123.086 16.6781 122.626 16.9083 122.166 17.125C121.732 17.3146 121.299 17.5313 120.866 17.775C117.859 19.5083 115.327 21.7292 113.269 24.4375C112.862 24.9792 112.443 25.5885 112.009 26.2656C111.576 26.9427 111.183 27.6469 110.831 28.3781C110.479 29.0823 110.181 29.8135 109.937 30.5719C109.721 31.3302 109.612 32.0615 109.612 32.7656C109.612 32.874 109.626 33.0365 109.653 33.2531C109.68 33.4427 109.721 33.6458 109.775 33.8625C109.829 34.0521 109.91 34.2281 110.019 34.3906C110.154 34.526 110.303 34.5938 110.466 34.5938C111.251 34.5938 112.009 34.3906 112.741 33.9844C113.499 33.5781 114.203 33.0635 114.853 32.4406C115.503 31.8177 116.085 31.1542 116.6 30.45C117.115 29.7458 117.534 29.0823 117.859 28.4594C118.482 27.3219 119.037 26.1844 119.525 25.0469C120.012 23.8823 120.5 22.7177 120.987 21.5531C121.177 21.0656 121.394 20.4969 121.637 19.8469C121.908 19.1969 122.166 18.6417 122.409 18.1813C122.518 17.9917 122.694 17.8969 122.937 17.8969C123.127 17.8969 123.29 17.951 123.425 18.0594C123.56 18.1677 123.628 18.3167 123.628 18.5063L123.587 18.5875C123.371 19.5625 123.127 20.551 122.856 21.5531C122.585 22.5281 122.287 23.4896 121.962 24.4375C121.827 24.8167 121.665 25.2365 121.475 25.6969C121.285 26.1573 121.136 26.55 121.028 26.875C120.974 27.0646 120.933 27.2542 120.906 27.4438C120.906 27.6333 120.893 27.8229 120.866 28.0125C120.784 28.4458 120.69 28.8792 120.581 29.3125C120.5 29.7188 120.405 30.1385 120.297 30.5719C120.161 31.1135 120.04 31.6688 119.931 32.2375C119.85 32.7792 119.809 33.3344 119.809 33.9031C119.809 34.0385 119.809 34.1604 119.809 34.2688C119.809 34.3771 119.823 34.4854 119.85 34.5938C120.04 34.5938 120.256 34.5125 120.5 34.35C120.771 34.1875 121.042 33.9979 121.312 33.7813C121.583 33.5375 121.827 33.2938 122.044 33.05C122.287 32.8063 122.477 32.6167 122.612 32.4813C123.425 31.6146 124.197 30.6531 124.928 29.5969C125.118 29.3802 125.28 29.15 125.416 28.9063C125.578 28.6354 125.754 28.3917 125.944 28.175C126.025 28.0396 126.147 27.9719 126.309 27.9719C126.499 27.9719 126.661 28.0396 126.797 28.175C126.932 28.3104 127 28.4729 127 28.6625ZM143.778 16.475C143.778 16.5292 143.751 16.6104 143.697 16.7188C143.643 17.1792 143.589 17.626 143.534 18.0594C143.507 18.4656 143.453 18.8854 143.372 19.3188C143.236 20.2125 143.087 21.0927 142.925 21.9594C142.762 22.826 142.586 23.6927 142.397 24.5594C141.72 27.674 140.88 30.7344 139.878 33.7406C138.903 36.7469 137.82 39.726 136.628 42.6781C136.195 43.7344 135.734 44.7906 135.247 45.8469C134.786 46.9302 134.258 47.9729 133.662 48.975C133.094 50.0042 132.457 50.9792 131.753 51.9C131.049 52.8208 130.25 53.6604 129.356 54.4187C128.11 55.5292 126.675 56.0844 125.05 56.0844C124.183 56.0844 123.344 55.9354 122.531 55.6375C121.719 55.3396 120.96 54.9333 120.256 54.4187C119.552 53.9312 118.929 53.3354 118.388 52.6312C117.819 51.9542 117.385 51.2229 117.088 50.4375C117.06 50.4104 117.047 50.3427 117.047 50.2344C117.047 50.0719 117.115 49.9365 117.25 49.8281C117.385 49.7198 117.534 49.6656 117.697 49.6656C117.886 49.6656 118.049 49.7604 118.184 49.95C118.32 50.1937 118.455 50.4375 118.591 50.6812C118.699 50.925 118.848 51.1552 119.038 51.3719C119.742 52.2385 120.608 52.9562 121.638 53.525C122.64 54.1208 123.696 54.4187 124.806 54.4187C126.079 54.4187 127.203 53.9719 128.178 53.0781C128.936 52.401 129.654 51.575 130.331 50.6C131.008 49.625 131.645 48.5687 132.241 47.4312C132.864 46.2937 133.432 45.1021 133.947 43.8562C134.489 42.6104 134.976 41.3646 135.409 40.1187C135.87 38.9 136.29 37.7083 136.669 36.5437C137.048 35.3792 137.4 34.3094 137.725 33.3344C136.75 34.2823 135.694 35.0271 134.556 35.5687C133.419 36.1104 132.159 36.3812 130.778 36.3812C130.751 36.3812 130.71 36.3812 130.656 36.3812C130.602 36.3812 130.561 36.3677 130.534 36.3406C129.911 36.2052 129.383 35.9615 128.95 35.6094C128.544 35.2573 128.205 34.851 127.934 34.3906C127.691 33.9031 127.515 33.3885 127.406 32.8469C127.298 32.2781 127.244 31.7094 127.244 31.1406C127.244 29.5156 127.474 27.9042 127.934 26.3063C128.422 24.7083 129.14 23.2323 130.087 21.8781C130.683 21.0656 131.36 20.2802 132.119 19.5219C132.877 18.7365 133.703 18.0594 134.597 17.4906C135.491 16.8948 136.439 16.4208 137.441 16.0688C138.443 15.6896 139.472 15.5 140.528 15.5C140.691 15.5 140.948 15.5135 141.3 15.5406C141.652 15.5677 142.004 15.6219 142.356 15.7031C142.735 15.7573 143.06 15.8521 143.331 15.9875C143.629 16.1229 143.778 16.2854 143.778 16.475ZM142.356 16.9625C141.95 16.8542 141.49 16.8 140.975 16.8C140.027 16.8 139.093 16.976 138.172 17.3281C137.251 17.6802 136.384 18.1542 135.572 18.75C134.759 19.3188 134.015 19.9688 133.337 20.7C132.66 21.4313 132.065 22.1625 131.55 22.8938C130.792 24.0313 130.209 25.2906 129.803 26.6719C129.424 28.0531 129.234 29.4344 129.234 30.8156C129.234 31.1135 129.248 31.4656 129.275 31.8719C129.329 32.2781 129.41 32.6708 129.519 33.05C129.654 33.4021 129.844 33.7135 130.087 33.9844C130.358 34.2281 130.697 34.35 131.103 34.35C131.943 34.35 132.755 34.1469 133.541 33.7406C134.353 33.3344 135.098 32.8198 135.775 32.1969C136.452 31.574 137.048 30.8833 137.562 30.125C138.104 29.3396 138.537 28.5948 138.862 27.8906C139.675 26.1302 140.325 24.3292 140.812 22.4875C141.327 20.6458 141.842 18.8042 142.356 16.9625ZM159.825 18.0594C159.825 18.7365 159.662 19.4135 159.337 20.0906C159.012 20.7406 158.593 21.3635 158.078 21.9594C157.591 22.5552 157.049 23.0969 156.453 23.5844C155.857 24.0719 155.302 24.4917 154.787 24.8438C154.002 25.3854 153.176 25.8865 152.309 26.3469C151.47 26.8073 150.549 27.0375 149.547 27.0375C149.33 27.0375 149.086 27.0104 148.816 26.9563C148.572 26.9021 148.45 26.726 148.45 26.4281C148.45 26.049 148.626 25.8188 148.978 25.7375C149.059 25.7104 149.154 25.6969 149.262 25.6969C149.371 25.6969 149.479 25.6833 149.587 25.6563C149.885 25.6021 150.17 25.5073 150.441 25.3719C150.739 25.2365 151.036 25.0875 151.334 24.925C151.795 24.6271 152.377 24.2073 153.081 23.6656C153.785 23.124 154.476 22.5281 155.153 21.8781C155.83 21.2281 156.399 20.5646 156.859 19.8875C157.347 19.2104 157.591 18.574 157.591 17.9781C157.591 17.599 157.387 17.4094 156.981 17.4094C156.819 17.4094 156.656 17.4365 156.494 17.4906C156.331 17.5448 156.169 17.599 156.006 17.6531C154.706 18.0865 153.515 18.75 152.431 19.6438C151.348 20.5104 150.414 21.526 149.628 22.6906C148.843 23.8552 148.22 25.101 147.759 26.4281C147.326 27.7552 147.109 29.0823 147.109 30.4094C147.109 30.8427 147.136 31.3438 147.191 31.9125C147.272 32.4542 147.407 32.9688 147.597 33.4563C147.814 33.9438 148.098 34.3635 148.45 34.7156C148.802 35.0406 149.262 35.2031 149.831 35.2031C150.048 35.2031 150.251 35.1625 150.441 35.0812C150.63 35.0271 150.82 34.9458 151.009 34.8375C151.741 34.4313 152.418 33.8896 153.041 33.2125C153.664 32.5083 154.219 31.8042 154.706 31.1C154.842 30.9375 154.964 30.7615 155.072 30.5719C155.207 30.3823 155.343 30.1927 155.478 30.0031C155.559 29.8677 155.695 29.8 155.884 29.8C156.047 29.8 156.196 29.8542 156.331 29.9625C156.494 30.0708 156.575 30.2198 156.575 30.4094C156.575 30.4635 156.548 30.5448 156.494 30.6531C156.169 31.249 155.762 31.9125 155.275 32.6438C154.787 33.3479 154.246 34.0115 153.65 34.6344C153.054 35.2573 152.404 35.7719 151.7 36.1781C151.023 36.6115 150.305 36.8281 149.547 36.8281C148.707 36.8281 148.003 36.5844 147.434 36.0969C146.893 35.6365 146.459 35.0677 146.134 34.3906C145.809 33.6865 145.579 32.9417 145.444 32.1563C145.308 31.3438 145.241 30.6125 145.241 29.9625C145.241 27.9042 145.674 25.9406 146.541 24.0719C147.407 22.176 148.572 20.5104 150.034 19.075C150.468 18.6417 150.969 18.2083 151.537 17.775C152.106 17.3146 152.702 16.9083 153.325 16.5563C153.975 16.1771 154.625 15.8792 155.275 15.6625C155.952 15.4188 156.602 15.2969 157.225 15.2969C158.01 15.2969 158.633 15.5677 159.094 16.1094C159.581 16.624 159.825 17.274 159.825 18.0594Z" fill="black"/>
</svg>
